HIERARCHY
ROOT Hips
{
	OFFSET 0.000000 0.000000 0.000000
	CHANNELS 6 Xposition Yposition Zposition Zrotation Yrotation Xrotation 
	JOINT LowerBack
	{
		OFFSET 0.000000 0.000000 0.000000
		CHANNELS 3 Zrotation Yrotation Xrotation
		JOINT Spine
		{
			OFFSET 0.028270 2.035590 -0.193380
			CHANNELS 3 Zrotation Yrotation Xrotation
			JOINT Spine1
			{
				OFFSET 0.056720 2.048850 -0.042750
				CHANNELS 3 Zrotation Yrotation Xrotation
				JOINT Neck
				{
					OFFSET 0.000000 0.000000 0.000000
					CHANNELS 3 Zrotation Yrotation Xrotation
					JOINT Neck1
					{
						OFFSET -0.054170 1.746240 0.172020
						CHANNELS 3 Zrotation Yrotation Xrotation
						JOINT Head
						{
							OFFSET 0.104070 1.761360 -0.123970
							CHANNELS 3 Zrotation Yrotation Xrotation
							End Site
							{
								OFFSET 0.000000 0.000000 0.000000
							}
						}
					}
				}
				JOINT LeftShoulder
				{
					OFFSET 0.000000 0.000000 0.000000
					CHANNELS 3 Zrotation Yrotation Xrotation
					JOINT LeftArm
					{
						OFFSET 3.362410 1.200890 -0.311210
						CHANNELS 3 Zrotation Yrotation Xrotation
						JOINT LeftForeArm
						{
							OFFSET 4.983000 -0.000000 -0.000000
							CHANNELS 3 Zrotation Yrotation Xrotation
							JOINT LeftHand
							{
								OFFSET 3.483560 -0.000000 -0.000000
								CHANNELS 3 Zrotation Yrotation Xrotation
								JOINT LeftFingerBase
								{
									OFFSET 0.000000 0.000000 0.000000
									CHANNELS 3 Zrotation Yrotation Xrotation
									JOINT LeftHandIndex1
									{
										OFFSET 0.715260 -0.000000 -0.000000
										CHANNELS 3 Zrotation Yrotation Xrotation
										End Site
										{
											OFFSET 0.000000 0.000000 0.000000
										}
									}
								}
								JOINT LThumb
								{
									OFFSET 0.000000 0.000000 0.000000
									CHANNELS 3 Zrotation Yrotation Xrotation
									End Site
									{
										OFFSET 0.000000 0.000000 0.000000
									}
								}
							}
						}
					}
				}
				JOINT RightShoulder
				{
					OFFSET 0.000000 0.000000 0.000000
					CHANNELS 3 Zrotation Yrotation Xrotation
					JOINT RightArm
					{
						OFFSET -3.136600 1.374050 -0.404650
						CHANNELS 3 Zrotation Yrotation Xrotation
						JOINT RightForeArm
						{
							OFFSET -5.241900 -0.000000 -0.000000
							CHANNELS 3 Zrotation Yrotation Xrotation
							JOINT RightHand
							{
								OFFSET -3.444170 -0.000000 -0.000000
								CHANNELS 3 Zrotation Yrotation Xrotation
								JOINT RightFingerBase
								{
									OFFSET 0.000000 0.000000 0.000000
									CHANNELS 3 Zrotation Yrotation Xrotation
									JOINT RightHandIndex1
									{
										OFFSET -0.622530 -0.000000 -0.000000
										CHANNELS 3 Zrotation Yrotation Xrotation
										End Site
										{
											OFFSET 0.000000 0.000000 0.000000
										}
									}
								}
								JOINT RThumb
								{
									OFFSET 0.000000 0.000000 0.000000
									CHANNELS 3 Zrotation Yrotation Xrotation
									End Site
									{
										OFFSET 0.000000 0.000000 0.000000
									}
								}
							}
						}
					}
				}
			}
		}
	}
}
}
MOTION
Frames: 18
Frame Time: 0.008333
-11.801337 17.976427 -1.091192 -84.757126 85.668725 -57.513758 4.664038 -2.826806 -4.920492 1.513385 -3.190544 -4.331230 -1.351457 -3.269036 -2.077521 7.359884 -3.546494 -6.659505 1.786210 0.129091 0.145911 0.000000 0.000000 0.000000 12.866327 -1.944147 4.814750 18.284942 -57.771838 -18.850249 -0.255563 -32.533231 -0.009707 1.736156 -2.951199 -0.053791 -0.074545 0.461573 -0.000000 0.000000 0.000000 0.000000 0.000000 0.000000 0.000000 -10.659034 2.146944 -1.298867 13.514562 70.651460 -12.474245 -1.105284 47.193062 0.052887 8.584297 2.178557 0.201362 -0.268755 -0.418486 0.000000 0.000000 0.000000 0.000000 0.000000 0.000000 0.000000 
-11.526298 18.037547 -1.085377 -90.991993 85.745767 -63.547412 5.094500 -2.879884 -5.217596 1.575606 -3.294905 -4.382195 -1.560421 -3.375131 -2.008538 7.564097 -3.712813 -6.632996 1.708032 0.122101 0.158182 0.000000 0.000000 0.000000 12.980169 -1.881515 5.068534 19.065671 -57.590346 -15.000540 -0.412543 -34.275322 0.003665 -0.256567 -2.421363 0.006042 -0.025460 0.426036 -0.000000 0.000000 0.000000 0.000000 0.000000 0.000000 0.000000 -10.079924 1.798618 -1.519474 16.103887 70.707586 -11.760231 -1.231480 48.013040 0.047683 7.714625 2.680352 0.218034 -0.261917 -0.442245 -0.000000 0.000000 0.000000 0.000000 0.000000 0.000000 0.000000 
-11.252244 18.085044 -1.077231 -96.893698 85.828958 -69.251309 5.448465 -2.922926 -5.522179 1.616397 -3.384813 -4.434602 -1.777646 -3.466775 -1.941633 7.764311 -3.901523 -6.628861 1.617486 0.114642 0.164745 0.000000 0.000000 0.000000 13.172316 -1.813405 5.302944 19.833823 -57.432547 -11.600099 -0.536286 -36.137267 0.016396 -2.398600 -1.957833 0.050254 0.027954 0.393190 -0.000000 0.000000 0.000000 0.000000 0.000000 0.000000 0.000000 -9.433592 1.434335 -1.720266 18.414366 70.777119 -11.278189 -1.354330 48.721567 0.040947 6.763067 3.314832 0.232301 -0.253809 -0.468297 -0.000000 0.000000 0.000000 0.000000 0.000000 0.000000 0.000000 
-10.979430 18.118812 -1.066543 -102.443398 85.928499 -74.623629 5.723446 -2.959892 -5.816673 1.635232 -3.462852 -4.485800 -2.001056 -3.546217 -1.882057 7.957007 -4.112996 -6.644521 1.517156 0.106860 0.166202 0.000000 0.000000 0.000000 13.443226 -1.739843 5.510947 20.528077 -57.296986 -8.650853 -0.629961 -38.058249 0.028106 -4.628615 -1.565234 0.079944 0.083598 0.363382 0.000000 0.000000 0.000000 0.000000 0.000000 0.000000 0.000000 -8.738915 1.054352 -1.905704 20.535000 70.896001 -10.979571 -1.476419 49.278760 0.033105 5.801024 4.049578 0.240466 -0.245878 -0.495654 0.000000 0.000000 0.000000 0.000000 0.000000 0.000000 0.000000 
-10.708149 18.138941 -1.053195 -107.732942 86.051697 -79.776114 5.921555 -2.995730 -6.081220 1.632968 -3.532726 -4.532520 -2.227868 -3.616908 -1.834412 8.135305 -4.344332 -6.677726 1.409953 0.098932 0.163088 0.000000 0.000000 0.000000 13.785461 -1.661934 5.688839 21.108405 -57.177053 -6.138486 -0.698712 -39.976683 0.038524 -6.884434 -1.229404 0.096707 0.139325 0.336430 0.000000 0.000000 0.000000 0.000000 0.000000 0.000000 0.000000 -8.019911 0.660810 -2.080274 22.578261 71.087781 -10.799462 -1.601635 49.659054 0.024696 4.892119 4.837075 0.240630 -0.239426 -0.523232 -0.000000 0.000000 0.000000 0.000000 0.000000 0.000000 0.000000 
-10.438658 18.145850 -1.037061 -112.901123 86.211644 -84.871725 6.037265 -3.036069 -6.292409 1.608650 -3.598042 -4.570308 -2.455783 -3.682289 -1.802235 8.293502 -4.591111 -6.725689 1.297700 0.090935 0.156101 0.000000 0.000000 0.000000 14.184785 -1.583314 5.835231 21.549571 -57.064357 -4.029000 -0.748413 -41.836936 0.047493 -9.107302 -0.923353 0.101147 0.193170 0.311785 0.000000 0.000000 0.000000 0.000000 0.000000 0.000000 0.000000 -7.292790 0.257209 -2.246809 24.644315 71.366239 -10.669230 -1.734515 49.848624 0.016144 4.070732 5.629603 0.232793 -0.235181 -0.550154 0.000000 0.000000 0.000000 0.000000 0.000000 0.000000 0.000000 
-10.171137 18.139997 -1.018178 -118.177775 86.411885 -90.161398 6.072969 -3.085066 -6.430153 1.563245 -3.661747 -4.595449 -2.682058 -3.745178 -1.788434 8.423369 -4.846477 -6.785611 1.182067 0.082931 0.146001 0.000000 0.000000 0.000000 14.623066 -1.508198 5.950867 21.844529 -56.949927 -2.287794 -0.784802 -43.587342 0.054990 -11.246876 -0.619113 0.091968 0.243575 0.288874 0.000000 0.000000 0.000000 0.000000 0.000000 0.000000 0.000000 -6.575329 -0.150956 -2.407791 26.825356 71.731990 -10.521094 -1.879947 49.848294 0.007698 3.342227 6.383272 0.217657 -0.233273 -0.575815 0.000000 0.000000 0.000000 0.000000 0.000000 0.000000 0.000000 
-9.905672 18.121772 -0.996945 -123.776708 86.633969 -95.868893 6.051905 -3.142867 -6.484376 1.502335 -3.725121 -4.606585 -2.904194 -3.806735 -1.795485 8.512785 -5.101245 -6.854233 1.064281 0.074934 0.133764 0.000000 0.000000 0.000000 15.076200 -1.440561 6.037920 21.999027 -56.825838 -0.880986 -0.813049 -45.184169 0.061102 -13.263361 -0.293782 0.067273 0.289431 0.267254 0.000000 0.000000 0.000000 0.000000 0.000000 0.000000 0.000000 -5.887737 -0.556096 -2.565045 29.198393 72.176641 -10.289743 -2.042765 49.669896 -0.000646 2.679861 7.066510 0.195320 -0.233135 -0.599986 0.000000 0.000000 0.000000 0.000000 0.000000 0.000000 0.000000 
-9.642259 18.091552 -0.973743 -129.842922 86.862609 -102.144270 5.991732 -3.208280 -6.450050 1.430141 -3.788203 -4.602999 -3.120207 -3.866924 -1.824334 8.552518 -5.347123 -6.928313 0.944275 0.066859 0.120370 0.000000 0.000000 0.000000 15.522432 -1.382980 6.098509 22.030013 -56.686540 0.218081 -0.837345 -46.590128 0.065972 -15.120971 0.065874 0.025166 0.329925 0.246713 0.000000 0.000000 0.000000 0.000000 0.000000 0.000000 0.000000 -5.239047 -0.951493 -2.718037 31.799655 72.688910 -9.922983 -2.227133 49.329919 -0.009286 2.018632 7.670138 0.163280 -0.233379 -0.622927 0.000000 0.000000 0.000000 0.000000 0.000000 0.000000 0.000000 
-9.380812 18.049619 -0.948894 -136.441273 87.081021 -109.047897 5.911121 -3.278448 -6.331692 1.351306 -3.850182 -4.585615 -3.328041 -3.924923 -1.874364 8.534692 -5.576734 -7.005046 0.821354 0.058584 0.106690 0.000000 0.000000 0.000000 15.943979 -1.336386 6.134038 21.961858 -56.530333 1.025984 -0.860710 -47.774501 0.069775 -16.787741 0.461146 -0.034547 0.364513 0.227319 0.000000 0.000000 0.000000 0.000000 0.000000 0.000000 0.000000 -4.632471 -1.331714 -2.863794 34.633101 73.257878 -9.380825 -2.436011 48.846886 -0.018944 1.269182 8.206289 0.116134 -0.232008 -0.645281 0.000000 0.000000 0.000000 0.000000 0.000000 0.000000 0.000000 
-9.121055 17.996032 -0.923034 -143.392439 87.261225 -116.384708 5.842516 -3.348832 -6.145843 1.274243 -3.910440 -4.557566 -3.525143 -3.980230 -1.943359 8.450290 -5.784008 -7.082147 0.694799 0.049993 0.093449 0.000000 0.000000 0.000000 16.323901 -1.298304 6.144712 21.816927 -56.359780 1.552677 -0.884922 -48.714836 0.072708 -18.234982 0.881881 -0.109563 0.392871 0.209423 0.000000 0.000000 0.000000 0.000000 0.000000 0.000000 0.000000 -4.072161 -1.693077 -2.997304 37.672048 73.875002 -8.638203 -2.670727 48.236928 -0.030572 0.330152 8.707110 0.045479 -0.226569 -0.667968 -0.000000 0.000000 0.000000 0.000000 0.000000 0.000000 0.000000 
-8.862693 17.930717 -0.896480 -150.471346 87.388937 -123.914555 5.801761 -3.418057 -5.909092 1.204533 -3.970145 -4.521179 -3.707779 -4.034288 -2.026744 8.295045 -5.965818 -7.158383 0.563740 0.040995 0.080965 0.000000 0.000000 0.000000 16.656443 -1.265315 6.129113 21.617911 -56.180881 1.795489 -0.910526 -49.394375 0.074975 -19.437960 1.308597 -0.194277 0.414914 0.193584 0.000000 0.000000 0.000000 0.000000 0.000000 0.000000 0.000000 -3.554197 -2.035327 -3.111000 40.855153 74.538223 -7.685432 -2.930214 47.509768 -0.045303 -0.901988 9.222228 -0.060088 -0.214334 -0.692046 0.000000 0.000000 0.000000 0.000000 0.000000 0.000000 0.000000 
-8.605371 17.853497 -0.869877 -157.174115 87.444792 -131.109952 5.812861 -3.485172 -5.647875 1.150837 -4.031731 -4.480659 -3.870727 -4.089980 -2.118615 8.063518 -6.120396 -7.233031 0.428166 0.031576 0.069357 0.000000 0.000000 0.000000 16.935728 -1.232216 6.084927 21.381017 -56.002836 1.747357 -0.936978 -49.805368 0.076787 -20.376555 1.717507 -0.281186 0.430737 0.180487 0.000000 0.000000 0.000000 0.000000 0.000000 0.000000 0.000000 -3.081116 -2.359432 -3.196549 44.108429 75.248572 -6.522580 -3.211115 46.668768 -0.064169 -2.509916 9.803198 -0.214073 -0.192755 -0.718386 0.000000 0.000000 0.000000 0.000000 0.000000 0.000000 0.000000 
-8.348666 17.764240 -0.843723 -163.042479 87.426083 -137.491154 5.883078 -3.551292 -5.386406 1.118356 -4.097694 -4.439579 -4.007257 -4.150176 -2.212025 7.753716 -6.246443 -7.305767 0.288953 0.021814 0.058494 0.000000 0.000000 0.000000 17.163218 -1.192909 6.009598 21.116325 -55.835709 1.396293 -0.962992 -49.946876 0.078357 -21.038058 2.085771 -0.362088 0.440630 0.170782 0.000000 0.000000 0.000000 0.000000 0.000000 0.000000 0.000000 -2.656172 -2.665362 -3.245754 47.348098 76.009125 -5.157214 -3.507592 45.711253 -0.087877 -4.544567 10.495856 -0.432979 -0.159888 -0.747457 0.000000 0.000000 0.000000 0.000000 0.000000 0.000000 0.000000 
-8.092269 17.662886 -0.818425 -167.751741 87.345445 -142.715356 6.008972 -3.616498 -5.144881 1.108951 -4.168024 -4.401000 -4.110310 -4.214923 -2.300545 7.366368 -6.342389 -7.376380 0.148140 0.011882 0.048112 0.000000 0.000000 0.000000 17.345947 -1.140692 5.900921 20.826686 -55.689664 0.726598 -0.986726 -49.824737 0.079863 -21.417144 2.397023 -0.429882 0.445006 0.164981 0.000000 0.000000 0.000000 0.000000 0.000000 0.000000 0.000000 -2.287077 -2.949429 -3.252069 50.493558 76.820533 -3.602146 -3.811837 44.630707 -0.116479 -7.008680 11.323683 -0.733503 -0.114986 -0.779010 -0.000000 0.000000 0.000000 0.000000 0.000000 0.000000 0.000000 
-7.836033 17.549784 -0.794341 -171.177289 87.223225 -146.651068 6.184134 -3.679865 -4.930817 1.122198 -4.240793 -4.365935 -4.173834 -4.282028 -2.379949 6.904337 -6.403875 -7.443983 0.008814 0.002031 0.038024 0.000000 0.000000 0.000000 17.483609 -1.069573 5.759633 20.525794 -55.569517 -0.275726 -1.005935 -49.454737 0.081452 -21.509666 2.642117 -0.479463 0.444201 0.163498 0.000000 0.000000 0.000000 0.000000 0.000000 0.000000 0.000000 -1.987443 -3.201941 -3.212719 53.469871 77.676191 -1.876486 -4.114684 43.420262 -0.149106 -9.849213 12.281122 -1.128839 -0.058952 -0.811974 -0.000000 0.000000 0.000000 0.000000 0.000000 0.000000 0.000000 
-7.579796 17.424899 -0.770864 -173.365724 87.095558 -149.317454 6.387274 -3.734658 -4.767260 1.153662 -4.308201 -4.339151 -4.193454 -4.343475 -2.447823 6.377243 -6.428934 -7.507571 -0.123486 -0.007324 0.028321 0.000000 0.000000 0.000000 17.631626 -0.974921 5.580305 20.119996 -55.492529 -1.611047 -1.017893 -48.840780 0.083147 -21.334414 2.834367 -0.511837 0.438937 0.165943 0.000000 0.000000 0.000000 0.000000 0.000000 0.000000 0.000000 -1.777122 -3.410590 -3.128178 56.221250 78.555824 -0.006638 -4.405916 42.079074 -0.183910 -12.956279 13.322185 -1.620976 0.005548 -0.844510 -0.000000 0.000000 0.000000 0.000000 0.000000 0.000000 0.000000 
-7.323822 17.289586 -0.748143 -174.516069 86.969847 -150.932465 6.612111 -3.782764 -4.632437 1.201081 -4.370345 -4.317213 -4.167658 -4.399106 -2.508056 5.793891 -6.407964 -7.564168 -0.244250 -0.015859 0.019381 0.000000 0.000000 0.000000 17.776122 -0.857738 5.369741 19.653527 -55.454708 -3.294498 -1.018988 -48.013323 0.084926 -20.875978 2.977436 -0.526201 0.429121 0.172594 0.000000 0.000000 0.000000 0.000000 0.000000 0.000000 0.000000 -1.677601 -3.557156 -3.007352 58.672973 79.428853 1.958007 -4.676701 40.608395 -0.218400 -16.174923 14.382413 -2.195204 0.074446 -0.874478 -0.000000 0.000000 0.000000 0.000000 0.000000 0.000000 0.000000 
